<?xml version="1.0" encoding="UTF-8" standalone="no"?>
<!-- Created with Inkscape (http://www.inkscape.org/) -->

<svg
   width="215.7637mm"
   height="268.83929mm"
   viewBox="0 0 215.7637 268.83929"
   version="1.1"
   id="svg1"
   xml:space="preserve"
   xmlns="http://www.w3.org/2000/svg"
   xmlns:svg="http://www.w3.org/2000/svg"><defs
     id="defs1" /><g
     id="layer1"
     transform="translate(-4.3192603,-26.249456)"><path
       style="fill:#000000"
       d="m 34.391977,293.83197 c -0.0959,-0.69123 -0.34655,-2.12217 -0.55709,-3.17988 -0.21053,-1.05771 -0.608,-3.26037 -0.88327,-4.89479 -0.27527,-1.63443 -0.81401,-4.69809 -1.19721,-6.80815 -0.38319,-2.11005 -0.91784,-5.08661 -1.1881,-6.61458 -0.27026,-1.52797 -0.86611,-4.86172 -1.32411,-7.40833 -1.21143,-6.73587 -1.79658,-10.0035 -2.51117,-14.02292 -0.34926,-1.96453 -0.94739,-5.29828 -1.32918,-7.40833 -0.38179,-2.11005 -0.91528,-5.08662 -1.18554,-6.61459 -0.27026,-1.52796 -0.86611,-4.86171 -1.32411,-7.40833 -1.06365,-5.91417 -1.71651,-9.55643 -2.51354,-14.02292 -0.79704,-4.46648 -1.4499,-8.10874 -2.51355,-14.02291 -0.458,-2.54662 -1.05331,-5.88037 -1.32291,-7.40834 -0.26961,-1.52796 -0.86492,-4.86171 -1.32292,-7.40833 -0.458,-2.54661 -1.06208,-5.91013 -1.34241,-7.47448 -0.28032,-1.56435 -0.73903,-4.12419 -1.01935,-5.68854 -0.28032,-1.56435 -0.8844,-4.92786 -1.34241,-7.47448 -0.458,-2.54661 -1.05331,-5.88036 -1.32291,-7.40833 -0.2696101,-1.52797 -0.8649201,-4.86172 -1.3229201,-7.40834 -2.10999,-11.73211 -3.0441,-16.97998 -3.55569,-19.97604 -0.22364,-1.30968 -0.53885,-2.77931 -0.70047,-3.26583 l -0.29386,-0.88458 2.46663,-2.29042 c 1.35665,-1.25973 7.9465801,-7.39903 14.6442801,-13.64289 6.69771,-6.24386 13.6064,-12.683486 15.35265,-14.310292 4.23548,-3.945768 20.14041,-18.770139 38.75007,-36.11744 8.3519,-7.785365 16.02312,-14.929115 17.04716,-15.875 1.02404,-0.945886 5.55734,-5.162847 10.074003,-9.371025 4.51665,-4.208178 8.58021,-7.993501 9.03012,-8.41183 l 0.81801,-0.760597 5.00282,4.684329 c 2.75155,2.576381 6.48867,6.064048 8.30471,7.750371 1.81604,1.686324 4.31635,4.028538 5.55625,5.20492 1.2399,1.176382 4.99161,4.688726 8.33714,7.805208 3.34552,3.116483 6.85787,6.389951 7.8052,7.274375 4.289,4.004158 11.17302,10.445328 13.11012,12.266737 1.16999,1.100121 3.66787,3.42897 5.55084,5.17522 1.88297,1.74625 4.43805,4.137231 5.67795,5.313292 1.2399,1.17606 4.15936,3.909225 6.48769,6.0737 2.32834,2.164474 4.94771,4.60576 5.82084,5.425078 0.87312,0.819318 2.53969,2.372403 3.70347,3.4513 1.16379,1.078896 3.18785,2.979307 4.49792,4.223134 1.31007,1.24383 4.22741,3.97725 6.48298,6.07427 2.25557,2.09702 4.81542,4.48414 5.68854,5.3047 0.87313,0.82057 4.74266,4.44491 8.59896,8.05409 4.18829,3.9199 6.98874,6.73277 6.95504,6.98588 -0.031,0.23305 -0.28888,1.61434 -0.573,3.06955 -0.47297,2.42245 -1.40797,7.53861 -2.68364,14.68438 -0.73444,4.11402 -1.79283,9.97995 -2.53015,14.02291 -0.35828,1.96454 -0.87616,4.82204 -1.15085,6.35 -0.27469,1.52797 -0.81418,4.50454 -1.19887,6.61459 -0.38468,2.11005 -0.98412,5.4438 -1.33207,7.40833 -0.34796,1.96453 -0.94739,5.29828 -1.33208,7.40833 -0.38468,2.11006 -0.92449,5.08662 -1.19956,6.61459 -0.73934,4.10688 -1.70045,9.42222 -2.48776,13.75833 -0.38313,2.11005 -0.91977,5.08662 -1.19254,6.61458 -0.27278,1.52797 -0.87306,4.86172 -1.33396,7.40834 -0.4609,2.54661 -1.06252,5.88036 -1.33693,7.40833 -0.64204,3.57493 -1.60631,8.91031 -2.48657,13.75833 -0.38313,2.11006 -0.91977,5.08662 -1.19254,6.61459 -0.77751,4.35525 -2.11816,11.77972 -2.6516,14.68437 -0.53344,2.90466 -1.8741,10.32912 -2.6516,14.68438 -0.27278,1.52797 -0.80802,4.50453 -1.18943,6.61458 -0.38141,2.11005 -0.91938,5.13224 -1.19549,6.71596 -0.2761,1.58373 -0.56599,2.9435 -0.6442,3.02171 -0.0782,0.0782 -0.4173,-0.11624 -0.75352,-0.43211 -0.33623,-0.31587 -0.69308,-0.57431 -0.79301,-0.57431 -0.0999,0 -0.64386,-0.47625 -1.20875,-1.05833 -0.56489,-0.58209 -1.10926,-1.05834 -1.2097,-1.05834 -0.10044,0 -1.57289,-1.19348 -3.27211,-2.65219 -1.69921,-1.4587 -3.44667,-2.94087 -3.88323,-3.29371 -1.73144,-1.39937 -7.97882,-6.74773 -8.63464,-7.39208 -0.38342,-0.37671 -0.78405,-0.68493 -0.89029,-0.68493 -0.10624,0 -1.5408,-1.19063 -3.18789,-2.64584 -1.6471,-1.4552 -3.07243,-2.64583 -3.16739,-2.64583 -0.095,0 -0.54936,-0.34456 -1.00977,-0.76569 -1.73437,-1.58641 -4.90207,-4.26139 -5.04631,-4.26139 -0.0825,0 -0.59793,-0.47606 -1.1454,-1.0579 -0.54747,-0.58184 -1.09432,-1.05809 -1.21522,-1.05833 -0.12091,-2.4e-4 -1.46999,-1.10177 -2.99797,-2.44783 -1.52798,-1.34607 -2.97687,-2.56646 -3.21976,-2.71198 -0.24289,-0.14552 -0.73927,-0.53848 -1.10307,-0.87325 -0.36381,-0.33476 -2.26881,-1.97253 -4.23334,-3.63949 -1.96453,-1.66696 -3.8917,-3.32783 -4.2826,-3.69082 -0.3909,-0.36299 -0.79154,-0.65999 -0.8903,-0.65999 -0.0988,0 -1.52719,-1.19062 -3.17429,-2.64583 -1.6471,-1.45521 -3.06976,-2.64583 -3.16147,-2.64583 -0.0917,0 -0.48658,-0.2938 -0.87748,-0.65289 -1.97739,-1.81646 -7.36481,-6.41709 -7.627,-6.51314 -0.33675,-0.12336 -6.2065,-5.12686 -7.2489,-6.17912 -0.36928,-0.37277 -0.79241,-0.67777 -0.94029,-0.67777 -0.14787,0 -0.67276,-0.41672 -1.16642,-0.92604 -0.49365,-0.50932 -1.06506,-0.92604 -1.2698,-0.92604 -0.20474,0 -0.80646,0.40892 -1.33716,0.9087 -1.74674,1.64499 -7.39645,6.49963 -7.56411,6.49963 -0.0903,0 -1.73809,1.37065 -3.661693,3.04589 -1.92359,1.67523 -3.85463,3.345 -4.29119,3.71058 -0.43656,0.36559 -2.3676,2.03104 -4.2912,3.70099 -1.92359,1.66996 -3.58598,3.03629 -3.6942,3.03629 -0.10822,0 -0.4989,0.3033 -0.86818,0.674 -0.36928,0.3707 -2.3383,2.09115 -4.37559,3.82323 -2.03729,1.73207 -4.06135,3.45335 -4.49791,3.82506 -0.43657,0.3717 -2.24114,1.92547 -4.01016,3.45281 -1.76902,1.52734 -3.29934,2.77698 -3.40071,2.77698 -0.10137,0 -0.61852,0.41249 -1.14922,0.91664 -0.53071,0.50414 -2.09601,1.88097 -3.47846,3.0596 -1.38244,1.17864 -2.94775,2.55209 -3.47845,3.05212 -0.5307,0.50003 -1.0526,0.90914 -1.15979,0.90914 -0.10718,0 -1.60285,1.25016 -3.32372,2.77813 -1.72086,1.52797 -3.20696,2.77812 -3.30245,2.77812 -0.0955,0 -0.48732,0.30605 -0.87075,0.6801 -1.35827,1.32508 -7.69235,6.72824 -7.88745,6.72824 -0.10895,0 -0.50023,0.30347 -0.86951,0.67439 -0.75959,0.76295 -7.51315,6.55092 -8.70633,7.46155 -0.42902,0.32742 -0.90273,0.59531 -1.0527,0.59531 -0.14997,0 -0.35111,-0.56555 -0.44698,-1.25677 z m 15.62001,-36.84323 c 0.56839,-0.58209 1.13919,-1.05834 1.26845,-1.05834 0.21497,0 6.36804,-5.32697 8.27,-7.15968 0.44396,-0.4278 0.90035,-0.77782 1.01419,-0.77782 0.11385,0 1.78971,-1.42875 3.72413,-3.175 1.93443,-1.74625 3.59154,-3.175 3.68246,-3.175 0.0909,0 0.6275,-0.47625 1.19239,-1.05833 0.5649,-0.58208 1.1114,-1.05833 1.21447,-1.05833 0.10306,0 1.81363,-1.42475 3.80127,-3.16612 1.98764,-1.74136 3.97108,-3.46753 4.40764,-3.83592 0.43656,-0.3684 2.42503,-2.0988 4.41882,-3.84535 1.99379,-1.74654 3.72315,-3.17553 3.84303,-3.17553 0.11988,0 0.72215,-0.53578 1.33838,-1.19062 0.61623,-0.65485 1.19027,-1.19063 1.27564,-1.19063 0.22014,0 6.71892,-5.83186 6.71892,-6.02941 0,-0.25724 -1.66525,-1.90809 -1.92473,-1.90809 -0.12838,0 -0.691,-0.47625 -1.25027,-1.05833 -0.55927,-0.58209 -1.09389,-1.05834 -1.18805,-1.05834 -0.0942,0 -1.70267,-1.36921 -3.57445,-3.0427 -1.87178,-1.67349 -3.4738,-3.04271 -3.56003,-3.04271 -0.0862,0 -1.85058,-1.50034 -3.92077,-3.33409 -2.0702,-1.83375 -4.12118,-3.62157 -4.55774,-3.97295 -0.43656,-0.35138 -2.42503,-2.06572 -4.41882,-3.80966 -1.99379,-1.74394 -3.69977,-3.1708 -3.79106,-3.1708 -0.0913,0 -0.62356,-0.47625 -1.18283,-1.05834 -0.55927,-0.58208 -1.09716,-1.05833 -1.19532,-1.05833 -0.0982,0 -1.64386,-1.30969 -3.43489,-2.91042 -1.79102,-1.60072 -3.33672,-2.91041 -3.43488,-2.91041 -0.0982,0 -0.63606,-0.47625 -1.19533,-1.05834 -0.55926,-0.58208 -1.09581,-1.05833 -1.19233,-1.05833 -0.0965,0 -1.76747,-1.42875 -3.71322,-3.175 -1.94574,-1.74625 -3.61839,-3.175 -3.717,-3.175 -0.0986,0 -0.60989,-0.40453 -1.13618,-0.89896 -0.52629,-0.49443 -2.14752,-1.92943 -3.60272,-3.1889 -1.45521,-1.25947 -3.00908,-2.64087 -3.45304,-3.06979 -0.44396,-0.42892 -0.89861,-0.77985 -1.01034,-0.77985 -0.11172,0 -1.72957,-1.36922 -3.59523,-3.04271 -1.86565,-1.67349 -3.47416,-3.04271 -3.57446,-3.04271 -0.10031,0 -0.64767,-0.48427 -1.21637,-1.07617 -0.56869,-0.5919 -1.15467,-1.00159 -1.30217,-0.91043 -0.32638,0.20172 -0.35669,1.78291 -0.0409,2.13213 0.12502,0.13824 0.42861,1.56104 0.67463,3.16177 0.24603,1.60073 0.55071,3.14854 0.67708,3.43958 0.12637,0.29104 0.43489,1.89839 0.68561,3.57187 0.25071,1.67349 0.54249,3.16178 0.64839,3.3073 0.10589,0.14552 0.39935,1.75286 0.65212,3.57187 0.25277,1.81901 0.55193,3.42636 0.66481,3.57188 0.11288,0.14552 0.35252,1.33614 0.53254,2.64583 0.18002,1.30969 0.41759,2.50031 0.52793,2.64583 0.11034,0.14552 0.40315,1.69334 0.65068,3.43959 0.24754,1.74625 0.55302,3.41312 0.67885,3.70416 0.12583,0.29104 0.42106,1.77933 0.65608,3.30729 0.23502,1.52797 0.53265,3.01625 0.66141,3.3073 0.12875,0.29104 0.44058,1.98768 0.69296,3.77031 0.25237,1.78263 0.55689,3.24114 0.67672,3.24114 0.11983,0 0.21787,0.31268 0.21787,0.69484 0,1.04577 0.78556,5.72854 1.03979,6.19821 0.12228,0.22592 0.37394,1.53561 0.55924,2.91042 0.1853,1.37481 0.41903,2.55919 0.51941,2.63195 0.10038,0.0728 0.38702,1.56104 0.63698,3.30729 0.24996,1.74625 0.55975,3.41313 0.68843,3.70417 0.12868,0.29104 0.42904,1.83885 0.66747,3.43958 0.23843,1.60073 0.53565,3.14854 0.6605,3.43959 0.12484,0.29104 0.41677,1.83885 0.64873,3.43958 0.23196,1.60073 0.52624,3.14854 0.65395,3.43958 0.12772,0.29104 0.43734,1.89839 0.68806,3.57188 0.25071,1.67349 0.54659,3.16177 0.65751,3.30729 0.11091,0.14552 0.34694,1.42544 0.52451,2.84427 0.17756,1.41883 0.41773,2.57969 0.5337,2.57969 0.11597,0 0.29373,0.7739 0.39503,1.71979 0.11153,1.04149 0.30737,1.71979 0.49653,1.71979 0.17179,0 0.7774,-0.47625 1.34579,-1.05833 z m 126.349383,-1.45828 c 0.22742,-1.308 0.4871,-2.55677 0.57705,-2.77506 0.09,-0.21828 0.30791,-1.4089 0.48433,-2.64583 0.17642,-1.23693 0.41146,-2.36802 0.52232,-2.51354 0.11086,-0.14552 0.40837,-1.75286 0.66114,-3.57188 0.25277,-1.81901 0.54623,-3.42635 0.65213,-3.57187 0.10589,-0.14552 0.39565,-1.6338 0.64391,-3.30729 0.24825,-1.67349 0.54436,-3.2213 0.65801,-3.43959 0.11365,-0.21828 0.41651,-1.82562 0.67302,-3.57187 0.25651,-1.74625 0.56567,-3.41313 0.68701,-3.70417 0.12135,-0.29104 0.41293,-1.77932 0.64795,-3.30729 0.23501,-1.52797 0.53069,-3.01625 0.65706,-3.30729 0.12636,-0.29104 0.37341,-1.5412 0.54898,-2.77813 0.17558,-1.23692 0.40993,-2.36802 0.52079,-2.51354 0.11086,-0.14552 0.40837,-1.75286 0.66114,-3.57187 0.25277,-1.81901 0.54835,-3.42636 0.65685,-3.57188 0.1085,-0.14552 0.40678,-1.69333 0.66285,-3.43958 0.25608,-1.74625 0.55373,-3.29406 0.66146,-3.43958 0.10773,-0.14552 0.3984,-1.69334 0.64594,-3.43959 0.24753,-1.74625 0.55301,-3.41312 0.67884,-3.70416 0.12583,-0.29105 0.42107,-1.77933 0.65609,-3.3073 0.23501,-1.52796 0.53203,-3.01625 0.66004,-3.30729 0.128,-0.29104 0.38018,-1.60073 0.5604,-2.91041 0.18022,-1.30969 0.40856,-2.44078 0.50741,-2.51355 0.0988,-0.0728 0.3882,-1.62057 0.64299,-3.43958 0.25479,-1.81901 0.55615,-3.42635 0.6697,-3.57187 0.11354,-0.14552 0.42092,-1.75287 0.68307,-3.57188 0.26215,-1.81901 0.55805,-3.36682 0.65757,-3.43958 0.25846,-0.18897 1.18101,-6.82913 0.97713,-7.033 -0.0932,-0.0933 -1.71578,1.21291 -3.60565,2.90256 -1.88986,1.68966 -3.50965,3.0721 -3.59953,3.0721 -0.0899,0 -1.79469,1.43658 -3.78848,3.1924 -1.99379,1.75582 -3.98226,3.48937 -4.41882,3.85234 -1.59587,1.32682 -8.75858,7.57056 -9.69616,8.45215 -0.5307,0.499 -1.04254,0.90728 -1.13743,0.90728 -0.0949,0 -1.8038,1.43121 -3.79759,3.18047 -1.99379,1.74926 -3.98226,3.46877 -4.41882,3.82114 -0.43656,0.35237 -2.42,2.07631 -4.40764,3.83099 -1.98764,1.75467 -3.69821,3.19032 -3.80127,3.19032 -0.10307,0 -0.64957,0.47625 -1.21447,1.05833 -0.56489,0.58208 -1.10185,1.05833 -1.19324,1.05833 -0.0914,0 -1.75295,1.42875 -3.69236,3.175 -1.93941,1.74625 -3.59997,3.175 -3.69012,3.175 -0.1619,0 -6.23182,5.26574 -8.10123,7.02794 -0.5307,0.50026 -1.04741,0.90956 -1.14824,0.90956 -0.31694,0 -4.36914,3.76549 -4.36914,4.06 0,0.33766 1.59736,2.02542 1.91693,2.02542 0.21976,0 6.35646,5.28979 8.59408,7.40803 0.61507,0.58225 1.19207,1.05864 1.28222,1.05864 0.0901,0 1.62929,1.30969 3.42031,2.91041 1.79103,1.60073 3.32752,2.91042 3.41444,2.91042 0.0869,0 0.62021,0.47625 1.1851,1.05833 0.5649,0.58209 1.10637,1.05834 1.20328,1.05834 0.0969,0 1.80749,1.42466 3.80128,3.16591 1.99379,1.74125 3.98226,3.46634 4.41882,3.83353 0.43656,0.36719 2.47806,2.15722 4.53666,3.97784 2.0586,1.82062 3.85163,3.31022 3.98451,3.31022 0.13289,0 0.65123,0.47355 1.15189,1.05234 0.50065,0.57879 1.02933,1.0616 1.17486,1.07291 0.14552,0.0113 1.75286,1.37842 3.57187,3.03801 1.81901,1.65959 3.48459,2.9911 3.70128,2.95891 0.27832,-0.0413 0.51538,-0.75672 0.80748,-2.4367 z m -60.26008,-54.7546 c 1.92286,-1.66739 3.8533,-3.33494 4.28986,-3.70566 0.43656,-0.37072 2.367,-2.04258 4.28987,-3.71525 1.92286,-1.67267 3.58368,-3.04121 3.69071,-3.04121 0.10703,0 0.55784,-0.35214 1.0018,-0.78253 0.44396,-0.43039 1.9383,-1.75503 3.32075,-2.94364 1.38244,-1.18861 2.94943,-2.56288 3.48218,-3.05393 0.53275,-0.49105 1.04846,-0.89282 1.14601,-0.89282 0.0975,0 1.58674,-1.25015 3.30931,-2.77812 1.72256,-1.52797 3.20129,-2.77813 3.28605,-2.77813 0.0848,0 0.6163,-0.47625 1.1812,-1.05833 0.56489,-0.58209 1.11023,-1.05834 1.21186,-1.05834 0.10163,0 1.59415,-1.25015 3.31672,-2.77812 1.72257,-1.52797 3.20129,-2.77813 3.28606,-2.77813 0.0848,0 0.6163,-0.47625 1.18119,-1.05833 0.56489,-0.58208 1.11023,-1.05833 1.21186,-1.05833 0.10163,0 1.59416,-1.25016 3.31672,-2.77813 1.72257,-1.52797 3.2105,-2.77812 3.30651,-2.77812 0.096,0 0.63214,-0.47625 1.19141,-1.05834 0.55927,-0.58208 1.0954,-1.05833 1.19141,-1.05833 0.096,0 1.58394,-1.25015 3.30651,-2.77812 1.72256,-1.52797 3.21343,-2.77813 3.31304,-2.77813 0.0996,0 0.61531,-0.41248 1.14601,-0.91663 0.88345,-0.83926 4.87417,-4.28794 6.78574,-5.86408 0.43656,-0.35995 2.367,-2.01764 4.28987,-3.68375 1.92286,-1.66611 3.5693,-3.02929 3.65876,-3.02929 0.0895,0 0.62023,-0.47625 1.17949,-1.05833 0.55927,-0.58209 1.09588,-1.05834 1.19248,-1.05834 0.0966,0 1.58956,-1.25015 3.3177,-2.77812 1.72814,-1.52797 3.21215,-2.77813 3.29781,-2.77813 0.27462,0 1.9816,-1.76311 1.9816,-2.04676 0,-0.30665 -7.75765,-7.74282 -8.07755,-7.74282 -0.11237,0 -1.05762,-0.89297 -2.10057,-1.98437 -1.04294,-1.09141 -1.98686,-1.98438 -2.0976,-1.98438 -0.11073,0 -3.1983,-2.7984 -6.86125,-6.21867 -3.66295,-3.42027 -7.43381,-6.92294 -8.3797,-7.78372 -0.94589,-0.86078 -4.65822,-4.31316 -8.24963,-7.671952 -3.59141,-3.358797 -6.60674,-6.106904 -6.70072,-6.106904 -0.094,0 -2.95086,-2.619375 -6.34861,-5.820833 -3.39774,-3.201458 -6.23259,-5.820833 -6.29967,-5.820833 -0.0671,0 -0.9988,-0.836858 -2.07051,-1.859684 -1.07171,-1.022826 -4.98466,-4.65885 -8.69544,-8.080052 -3.71078,-3.421203 -7.60317,-7.049189 -8.64975,-8.062192 -1.04658,-1.013002 -1.9838,-1.841822 -2.08271,-1.841822 -0.0989,0 -2.05588,-1.785938 -4.34879,-3.96875 -2.36875,-2.255 -4.38564,-3.96875 -4.67078,-3.96875 -0.27601,0 -1.38885,0.892968 -2.47297,1.984375 -1.08413,1.091406 -2.07338,1.984375 -2.19834,1.984375 -0.12496,0 -1.08044,0.83129 -2.12329,1.847312 -3.54631,3.455102 -14.694113,13.763104 -14.884383,13.763104 -0.10419,0 -1.1343,0.9525 -2.28912,2.116667 -1.15483,1.164167 -2.15766,2.116667 -2.22852,2.116667 -0.0709,0 -2.90881,2.619375 -6.30656,5.820833 -3.39774,3.201458 -6.25524,5.820833 -6.34999,5.820833 -0.0947,0 -2.94959,2.619375 -6.34408,5.820834 -3.3945,3.201458 -6.25203,5.820833 -6.35008,5.820833 -0.0981,0 -1.03438,0.892969 -2.08072,1.984379 -1.04635,1.0914 -1.99831,1.98437 -2.11548,1.98437 -0.11717,0 -2.95525,2.58961 -6.30684,5.75469 -3.35159,3.16507 -6.21287,5.79846 -6.35839,5.85197 -0.14552,0.0535 -1.1993,1.03577 -2.34172,2.18281 -1.14242,1.14704 -2.15039,2.08553 -2.23991,2.08553 -0.25329,0 -12.29716,11.40725 -12.29716,11.64714 0,0.2471 6.49511,6.07994 6.77026,6.07994 0.10131,0 0.5542,0.35566 1.00644,0.79036 1.75821,1.69 8.31505,7.41172 8.49351,7.41172 0.10368,0 0.62272,0.40957 1.15342,0.91014 1.81418,1.7112 5.80433,5.17528 5.96122,5.17528 0.0862,0 0.60458,0.47606 1.15204,1.0579 0.54747,0.58184 1.09555,1.05809 1.21797,1.05833 0.20576,4.1e-4 6.39514,5.34958 8.2726,7.1496 0.45224,0.43359 0.90862,0.78834 1.01419,0.78834 0.10557,0 1.77465,1.42875 3.70908,3.175 1.93443,1.74625 3.60533,3.175 3.71312,3.175 0.10779,0 0.65817,0.47625 1.22306,1.05833 0.5649,0.58208 1.09819,1.05833 1.18511,1.05833 0.0869,0 1.62341,1.30969 3.41444,2.91042 1.79102,1.60073 3.32538,2.91042 3.40969,2.91042 0.0843,0 0.60176,0.41122 1.14992,0.91382 2.6083,2.39157 8.26601,7.28826 8.42096,7.28826 0.0958,0 1.85779,1.49865 3.91555,3.33032 2.05776,1.83168 4.09856,3.61942 4.53513,3.97276 0.43656,0.35333 2.42,2.06937 4.407633,3.81342 1.98764,1.74405 3.69361,3.171 3.79106,3.171 0.0974,0 0.63474,0.47625 1.19401,1.05833 0.55927,0.58209 1.11548,1.06177 1.23603,1.06595 0.12055,0.004 1.17168,0.89244 2.33585,1.97388 1.16416,1.08145 2.32935,1.97099 2.5893,1.97676 0.25994,0.006 2.04588,-1.35373 3.96875,-3.02113 z m -23.094513,-77.28057 18.829413,-17.05447 20.05862,16.97311 c 0.0105,0.0391 -19.70574,17.13928 -19.70574,17.13928 0,0 -19.252059,-16.99473 -19.182293,-17.05792 z"
       id="path2" /></g></svg>
